<svg width="24" height="24" viewBox="0 0 24 24" fill="none" xmlns="http://www.w3.org/2000/svg">
  <!-- Background -->
  <rect width="24" height="24" rx="4" fill="#6264A7"/>
  
  <!-- Main person icon -->
  <path d="M12 6C13.1 6 14 6.9 14 8C14 9.1 13.1 10 12 10C10.9 10 10 9.1 10 8C10 6.9 10.9 6 12 6ZM12 12C14.21 12 16 13.79 16 16V18H8V16C8 13.79 9.79 12 12 12Z" fill="white"/>
  
  <!-- Right person icon -->
  <circle cx="18" cy="8" r="2" fill="white"/>
  <path d="M18 12C19.1 12 20 12.9 20 14V16H16V14C16 12.9 16.9 12 18 12Z" fill="white"/>
  
  <!-- Left person icon -->
  <circle cx="6" cy="8" r="2" fill="white"/>
  <path d="M6 12C7.1 12 8 12.9 8 14V16H4V14C4 12.9 4.9 12 6 12Z" fill="white"/>
  
  <!-- Teams chat bubble overlay -->
  <path d="M19 3H5C3.9 3 3 3.9 3 5V19C3 20.1 3.9 21 5 21H19C20.1 21 21 20.1 21 19V5C21 3.9 20.1 3 19 3ZM19 19H5V5H19V19Z" fill="white" opacity="0.2"/>
</svg> 